<?xml version="1.0" encoding="UTF-8"?>
<svg xmlns="http://www.w3.org/2000/svg" xmlns:xlink="http://www.w3.org/1999/xlink" width="1330.9pt" height="503.1pt" viewBox="0 0 1330.9 503.1" version="1.1">
<defs>
<clipPath id="clip1">
  <path d="M 323 400 L 1330 400 L 1330 503.101563 L 323 503.101563 Z M 323 400 "/>
</clipPath>
<clipPath id="clip2">
  <path d="M 326 138 L 1330.898438 138 L 1330.898438 147 L 326 147 Z M 326 138 "/>
</clipPath>
</defs>
<g id="surface1">
<path style=" stroke:none;fill-rule:evenodd;fill:rgb(10.594177%,9.812927%,9.423828%);fill-opacity:1;" d="M 326.695313 183.578125 L 397.679688 183.578125 L 397.679688 320.234375 L 509.707031 320.234375 L 509.707031 359.832031 L 326.695313 359.832031 Z M 326.695313 183.578125 "/>
<path style=" stroke:none;fill-rule:evenodd;fill:rgb(10.594177%,9.812927%,9.423828%);fill-opacity:1;" d="M 587.449219 359.832031 L 513.566406 359.832031 L 592.308594 183.578125 L 704.820313 183.578125 L 783.558594 359.832031 L 709.679688 359.832031 L 696.898438 329.738281 L 600.230469 329.738281 Z M 682.035156 294.757813 L 648.5625 215.972656 L 615.09375 294.757813 Z M 682.035156 294.757813 "/>
<path style=" stroke:none;fill-rule:evenodd;fill:rgb(10.594177%,9.812927%,9.423828%);fill-opacity:1;" d="M 858.738281 183.578125 L 974.640625 183.578125 L 974.640625 183.640625 C 1013.460938 184.988281 1033.300781 209.074219 1033.300781 238.332031 L 1033.300781 245.636719 C 1033.300781 269.722656 1015.160156 289.4375 982.621094 289.4375 L 982.230469 289.4375 L 982.230469 294.03125 L 992.078125 294.03125 C 1013.160156 294.03125 1030.410156 311.277344 1030.410156 332.355469 L 1030.410156 359.832031 L 959.671875 359.832031 L 959.671875 329.773438 C 959.671875 320.738281 952.28125 313.347656 943.238281 313.347656 L 872.988281 313.347656 L 872.988281 359.832031 L 799.601563 359.832031 L 799.601563 183.578125 Z M 886.988281 223.773438 L 872.988281 223.773438 L 872.988281 271.707031 L 943.480469 271.707031 C 952.511719 271.707031 959.910156 264.3125 959.910156 255.28125 L 959.910156 240.199219 C 959.910156 231.164063 952.511719 223.773438 943.480469 223.773438 Z M 886.988281 223.773438 "/>
<path style=" stroke:none;fill-rule:evenodd;fill:rgb(10.594177%,9.812927%,9.423828%);fill-opacity:1;" d="M 1320.238281 183.578125 L 1235.140625 183.578125 L 1163.378906 249.523438 L 1140.980469 249.523438 L 1140.980469 183.578125 L 1072.410156 183.578125 L 1072.410156 359.832031 L 1140.980469 359.832031 L 1140.980469 290.992188 L 1165.5 290.992188 L 1238.761719 358.316406 L 1323.871094 358.316406 L 1228.800781 270.949219 L 1225.179688 270.949219 Z M 1320.238281 183.578125 "/>
<path style=" stroke:none;fill-rule:evenodd;fill:rgb(86.326599%,0%,9.423828%);fill-opacity:1;" d="M 343.640625 93.910156 L 343.640625 55.988281 L 329.191406 55.988281 L 329.191406 106.019531 L 375.140625 106.019531 L 375.140625 93.910156 Z M 451.84375 106.019531 L 456.464844 97.695313 L 485.296875 97.695313 L 489.851563 106.019531 L 505.734375 106.019531 L 480.351563 55.988281 L 461.933594 55.988281 L 436.09375 106.019531 Z M 461.933594 85.652344 L 470.914063 67.964844 L 480.089844 85.652344 Z M 612.113281 55.988281 L 570.589844 55.988281 L 570.589844 106.019531 L 616.34375 106.019531 C 620.152344 106.03125 623.277344 105.457031 625.707031 104.324219 C 628.136719 103.1875 629.9375 101.433594 631.085938 99.070313 C 632.246094 96.695313 632.820313 93.667969 632.808594 89.984375 L 632.808594 72.78125 C 632.820313 68.800781 632.074219 65.578125 630.566406 63.101563 C 629.066406 60.636719 626.789063 58.824219 623.730469 57.675781 C 620.671875 56.539063 616.800781 55.976563 612.113281 55.988281 Z M 607.6875 68.308594 C 611.300781 68.296875 613.980469 68.972656 615.734375 70.351563 C 617.492188 71.738281 618.371094 73.894531 618.359375 76.839844 L 618.359375 85.652344 C 618.371094 88.460938 617.667969 90.535156 616.234375 91.867188 C 614.792969 93.199219 612.558594 93.851563 609.511719 93.839844 L 585.039063 93.839844 L 585.039063 68.308594 Z M 739.515625 55.988281 L 701.507813 55.988281 L 701.507813 106.019531 L 716.019531 106.019531 L 716.019531 93.222656 L 737.5625 93.222656 C 739.136719 93.207031 740.40625 93.335938 741.359375 93.609375 C 742.324219 93.886719 743.007813 94.402344 743.441406 95.148438 C 743.867188 95.894531 744.082031 96.972656 744.070313 98.382813 L 744.070313 106.019531 L 758.519531 106.019531 L 758.519531 95.765625 C 758.519531 93.222656 757.890625 91.15625 756.632813 89.574219 C 755.375 87.988281 753.507813 86.890625 751.035156 86.269531 C 753 85.777344 754.5625 84.960938 755.710938 83.828125 C 756.863281 82.691406 757.6875 81.1875 758.183594 79.308594 C 758.683594 77.425781 758.921875 75.109375 758.910156 72.367188 C 758.921875 69.132813 758.585938 66.449219 757.890625 64.316406 C 757.207031 62.195313 756.101563 60.519531 754.582031 59.304688 C 753.0625 58.078125 751.066406 57.21875 748.585938 56.722656 C 746.109375 56.21875 743.085938 55.976563 739.515625 55.988281 Z M 738.996094 68.445313 C 740.839844 68.433594 742.171875 68.894531 742.988281 69.820313 C 743.8125 70.738281 744.222656 72.164063 744.203125 74.089844 C 744.210938 75.660156 744.0625 76.945313 743.746094 77.90625 C 743.441406 78.882813 742.898438 79.59375 742.140625 80.042969 C 741.382813 80.476563 740.328125 80.707031 738.996094 80.695313 L 716.019531 80.695313 L 716.019531 68.445313 Z M 843.101563 55.988281 L 828.652344 55.988281 L 828.652344 106.019531 L 843.101563 106.019531 Z M 928.710938 93.910156 L 928.710938 55.988281 L 914.261719 55.988281 L 914.261719 106.019531 L 960.210938 106.019531 L 960.210938 93.910156 Z M 1041.28125 93.910156 L 1041.28125 55.988281 L 1026.828125 55.988281 L 1026.828125 106.019531 L 1072.78125 106.019531 L 1072.78125 93.910156 Z M 1164.839844 94.117188 C 1162.550781 94.125 1160.601563 94.011719 1158.96875 93.757813 C 1157.359375 93.507813 1156.03125 93.035156 1155.019531 92.371094 C 1154 91.695313 1153.25 90.742188 1152.789063 89.503906 C 1152.308594 88.253906 1152.078125 86.648438 1152.078125 84.6875 L 1152.078125 77.734375 C 1152.070313 75.636719 1152.300781 73.929688 1152.738281 72.621094 C 1153.199219 71.324219 1153.921875 70.328125 1154.910156 69.636719 C 1155.910156 68.949219 1157.210938 68.492188 1158.839844 68.238281 C 1160.460938 68 1162.441406 67.882813 1164.769531 67.894531 L 1174.011719 67.894531 C 1176.300781 67.882813 1178.261719 68 1179.871094 68.25 C 1181.488281 68.492188 1182.800781 68.960938 1183.800781 69.628906 C 1184.808594 70.304688 1185.550781 71.277344 1186.011719 72.539063 C 1186.480469 73.800781 1186.71875 75.441406 1186.710938 77.460938 L 1186.710938 84.550781 C 1186.71875 86.570313 1186.480469 88.207031 1186.011719 89.46875 C 1185.550781 90.730469 1184.808594 91.707031 1183.800781 92.382813 C 1182.800781 93.050781 1181.488281 93.519531 1179.871094 93.757813 C 1178.261719 94.011719 1176.300781 94.125 1174.011719 94.117188 Z M 1160.941406 106.640625 L 1177.859375 106.640625 C 1180.71875 106.652344 1183.289063 106.582031 1185.578125 106.421875 C 1187.878906 106.25 1189.910156 105.917969 1191.679688 105.414063 C 1193.441406 104.90625 1194.980469 104.152344 1196.28125 103.128906 C 1198.089844 101.671875 1199.390625 99.703125 1200.179688 97.234375 C 1200.980469 94.769531 1201.371094 91.683594 1201.359375 87.988281 L 1201.359375 74.019531 C 1201.359375 70.316406 1200.96875 67.230469 1200.160156 64.742188 C 1199.351563 62.261719 1198.050781 60.3125 1196.28125 58.878906 C 1195.019531 57.882813 1193.511719 57.125 1191.75 56.621094 C 1189.980469 56.117188 1187.941406 55.773438 1185.648438 55.609375 C 1183.339844 55.4375 1180.738281 55.359375 1177.859375 55.371094 L 1160.871094 55.371094 C 1157.980469 55.359375 1155.398438 55.4375 1153.109375 55.609375 C 1150.820313 55.773438 1148.808594 56.117188 1147.058594 56.621094 C 1145.300781 57.125 1143.800781 57.882813 1142.511719 58.878906 C 1141.230469 59.902344 1140.210938 61.152344 1139.449219 62.632813 C 1138.699219 64.097656 1138.160156 65.832031 1137.839844 67.816406 C 1137.53125 69.800781 1137.359375 72.070313 1137.371094 74.640625 L 1137.371094 88.265625 C 1137.359375 90.664063 1137.53125 92.796875 1137.851563 94.652344 C 1138.179688 96.511719 1138.71875 98.140625 1139.480469 99.539063 C 1140.230469 100.925781 1141.238281 102.132813 1142.511719 103.128906 C 1143.859375 104.175781 1145.429688 104.941406 1147.199219 105.445313 C 1148.988281 105.953125 1151.019531 106.285156 1153.300781 106.433594 C 1155.578125 106.582031 1158.121094 106.652344 1160.941406 106.640625 Z M 1269.398438 89.367188 C 1269.328125 90.398438 1269.289063 91.257813 1269.261719 91.925781 C 1269.230469 92.601563 1269.199219 93.082031 1269.199219 93.359375 C 1269.191406 96.078125 1269.539063 98.3125 1270.238281 100.046875 C 1270.949219 101.789063 1272.078125 103.140625 1273.640625 104.105469 C 1275.191406 105.058594 1277.238281 105.734375 1279.78125 106.101563 C 1282.308594 106.480469 1285.410156 106.652344 1289.050781 106.640625 L 1308.320313 106.640625 C 1310.621094 106.652344 1312.691406 106.582031 1314.53125 106.457031 C 1316.378906 106.332031 1317.988281 106.089844 1319.390625 105.746094 C 1320.800781 105.390625 1321.988281 104.886719 1322.960938 104.230469 C 1324.359375 103.28125 1325.449219 102.203125 1326.230469 100.996094 C 1327.011719 99.792969 1327.550781 98.40625 1327.859375 96.824219 C 1328.171875 95.238281 1328.308594 93.394531 1328.300781 91.292969 C 1328.308594 88.378906 1328.050781 85.902344 1327.519531 83.863281 C 1327 81.820313 1326.148438 80.15625 1324.988281 78.894531 C 1323.828125 77.621094 1322.308594 76.667969 1320.429688 76.0625 C 1318.539063 75.453125 1316.238281 75.109375 1313.53125 75.050781 L 1289.769531 74.433594 C 1288.441406 74.398438 1287.371094 74.25 1286.53125 73.984375 C 1285.699219 73.734375 1285.078125 73.308594 1284.691406 72.722656 C 1284.300781 72.128906 1284.109375 71.324219 1284.109375 70.304688 C 1284.109375 69.144531 1284.371094 68.285156 1284.878906 67.722656 C 1285.398438 67.160156 1286.160156 66.792969 1287.179688 66.621094 C 1288.191406 66.4375 1289.441406 66.359375 1290.941406 66.382813 L 1307.609375 66.382813 C 1309.199219 66.382813 1310.390625 66.792969 1311.171875 67.621094 C 1311.960938 68.445313 1312.359375 69.683594 1312.359375 71.335938 L 1312.359375 71.542969 L 1326.28125 71.542969 C 1326.320313 71.0625 1326.351563 70.578125 1326.371094 70.109375 C 1326.398438 69.648438 1326.410156 69.203125 1326.410156 68.789063 C 1326.429688 65.589844 1325.878906 62.996094 1324.800781 61.023438 C 1323.71875 59.050781 1322.039063 57.605469 1319.761719 56.710938 C 1317.480469 55.804688 1314.550781 55.359375 1310.988281 55.371094 L 1288.929688 55.371094 C 1286.390625 55.347656 1284.109375 55.429688 1282.089844 55.589844 C 1280.058594 55.75 1278.269531 56.117188 1276.710938 56.667969 C 1275.148438 57.21875 1273.800781 58.066406 1272.648438 59.222656 C 1271.460938 60.484375 1270.601563 62.066406 1270.089844 63.984375 C 1269.570313 65.898438 1269.320313 68.21875 1269.328125 70.921875 C 1269.320313 73.78125 1269.558594 76.152344 1270.058594 78.058594 C 1270.550781 79.949219 1271.351563 81.453125 1272.46875 82.566406 C 1273.589844 83.675781 1275.070313 84.492188 1276.941406 84.996094 C 1278.800781 85.5 1281.101563 85.789063 1283.851563 85.855469 L 1306.558594 86.613281 C 1308.121094 86.636719 1309.429688 86.761719 1310.460938 86.992188 C 1311.480469 87.210938 1312.261719 87.621094 1312.761719 88.230469 C 1313.28125 88.851563 1313.53125 89.746094 1313.53125 90.949219 C 1313.53125 92.441406 1313.140625 93.507813 1312.339844 94.148438 C 1311.550781 94.792969 1310.289063 95.101563 1308.578125 95.078125 L 1290.421875 95.078125 C 1288.761719 95.101563 1287.429688 94.988281 1286.441406 94.746094 C 1285.441406 94.503906 1284.730469 94.046875 1284.289063 93.347656 C 1283.859375 92.648438 1283.640625 91.613281 1283.648438 90.261719 L 1283.648438 89.367188 Z M 1269.398438 89.367188 "/>
<path style=" stroke:none;fill-rule:evenodd;fill:rgb(86.326599%,0%,9.423828%);fill-opacity:1;" d="M 63.40625 224.761719 L 192.425781 350.394531 C 193.289063 351.234375 193.308594 352.628906 192.464844 353.488281 L 133.03125 414.527344 C 132.191406 415.390625 130.796875 415.410156 129.933594 414.570313 L 0.917969 288.9375 C 0.0546875 288.097656 0.0351563 286.703125 0.875 285.839844 L 60.3125 224.804688 C 61.152344 223.941406 62.542969 223.921875 63.40625 224.761719 Z M 69.855469 242.15625 C 73.527344 245.734375 73.453125 251.769531 69.683594 255.640625 C 65.917969 259.507813 59.882813 259.746094 56.210938 256.167969 C 52.535156 252.589844 52.613281 246.554688 56.378906 242.683594 C 60.148438 238.816406 66.179688 238.578125 69.855469 242.15625 Z M 87.429688 259.269531 C 91.101563 262.847656 91.027344 268.882813 87.257813 272.753906 C 83.492188 276.621094 77.457031 276.859375 73.785156 273.28125 C 70.109375 269.703125 70.1875 263.667969 73.953125 259.796875 C 77.722656 255.929688 83.753906 255.691406 87.429688 259.269531 Z M 105.003906 276.382813 C 108.675781 279.957031 108.601563 285.996094 104.832031 289.867188 C 101.066406 293.734375 95.03125 293.972656 91.359375 290.394531 C 87.683594 286.816406 87.761719 280.777344 91.527344 276.910156 C 95.296875 273.042969 101.328125 272.804688 105.003906 276.382813 Z M 122.578125 293.496094 C 126.25 297.070313 126.175781 303.109375 122.40625 306.976563 C 118.640625 310.847656 112.605469 311.082031 108.933594 307.507813 C 105.257813 303.929688 105.335938 297.890625 109.101563 294.023438 C 112.871094 290.152344 118.902344 289.917969 122.578125 293.496094 Z M 140.152344 310.605469 C 143.824219 314.183594 143.75 320.222656 139.980469 324.089844 C 136.214844 327.960938 130.179688 328.195313 126.507813 324.621094 C 122.832031 321.042969 122.910156 315.003906 126.675781 311.136719 C 130.445313 307.265625 136.476563 307.03125 140.152344 310.605469 Z M 157.726563 327.71875 C 161.398438 331.296875 161.324219 337.335938 157.554688 341.203125 C 153.789063 345.074219 147.753906 345.308594 144.082031 341.734375 C 140.40625 338.15625 140.484375 332.117188 144.25 328.246094 C 148.019531 324.378906 154.050781 324.144531 157.726563 327.71875 Z M 175.300781 344.832031 C 178.972656 348.410156 178.898438 354.449219 175.128906 358.316406 C 171.363281 362.1875 165.328125 362.421875 161.65625 358.847656 C 157.980469 355.269531 158.058594 349.230469 161.824219 345.359375 C 165.59375 341.492188 171.625 341.253906 175.300781 344.832031 Z M 59.296875 269.957031 C 62.972656 273.53125 62.894531 279.570313 59.128906 283.441406 C 55.359375 287.308594 49.324219 287.546875 45.652344 283.96875 C 41.980469 280.390625 42.054688 274.351563 45.824219 270.484375 C 49.589844 266.617188 55.625 266.378906 59.296875 269.957031 Z M 76.871094 287.070313 C 80.546875 290.644531 80.46875 296.683594 76.703125 300.550781 C 72.933594 304.421875 66.898438 304.660156 63.226563 301.082031 C 59.554688 297.503906 59.628906 291.464844 63.398438 287.597656 C 67.164063 283.726563 73.199219 283.492188 76.871094 287.070313 Z M 94.445313 304.183594 C 98.121094 307.757813 98.042969 313.796875 94.277344 317.664063 C 90.507813 321.535156 84.476563 321.773438 80.800781 318.195313 C 77.128906 314.617188 77.203125 308.578125 80.972656 304.710938 C 84.738281 300.839844 90.773438 300.605469 94.445313 304.183594 Z M 112.019531 321.292969 C 115.691406 324.871094 115.617188 330.910156 111.851563 334.777344 C 108.082031 338.648438 102.046875 338.882813 98.375 335.308594 C 94.699219 331.730469 94.777344 325.691406 98.542969 321.820313 C 102.3125 317.953125 108.34375 317.71875 112.019531 321.292969 Z M 129.59375 338.40625 C 133.265625 341.984375 133.191406 348.023438 129.425781 351.890625 C 125.65625 355.761719 119.621094 355.996094 115.949219 352.421875 C 112.273438 348.84375 112.351563 342.804688 116.121094 338.933594 C 119.886719 335.066406 125.921875 334.828125 129.59375 338.40625 Z M 147.167969 355.519531 C 150.839844 359.097656 150.765625 365.136719 147 369.003906 C 143.230469 372.875 137.195313 373.109375 133.523438 369.53125 C 129.847656 365.957031 129.925781 359.917969 133.695313 356.046875 C 137.460938 352.179688 143.496094 351.941406 147.167969 355.519531 Z M 41.921875 253.035156 C 45.59375 256.613281 45.515625 262.648438 41.75 266.519531 C 37.984375 270.386719 31.949219 270.625 28.277344 267.046875 C 27.980469 266.761719 27.714844 266.457031 27.46875 266.144531 L 40.996094 252.25 C 41.316406 252.488281 41.625 252.75 41.921875 253.035156 Z M 32.882813 280.125 C 36.558594 283.699219 36.480469 289.738281 32.714844 293.609375 C 28.945313 297.476563 22.910156 297.714844 19.238281 294.136719 C 15.566406 290.558594 15.640625 284.519531 19.410156 280.652344 C 23.175781 276.785156 29.210938 276.546875 32.882813 280.125 Z M 50.457031 297.238281 C 54.132813 300.8125 54.054688 306.851563 50.289063 310.71875 C 46.519531 314.589844 40.484375 314.828125 36.8125 311.25 C 33.140625 307.671875 33.214844 301.632813 36.984375 297.765625 C 40.75 293.894531 46.785156 293.660156 50.457031 297.238281 Z M 68.03125 314.351563 C 71.707031 317.925781 71.628906 323.964844 67.863281 327.832031 C 64.09375 331.703125 58.0625 331.941406 54.386719 328.363281 C 50.714844 324.785156 50.789063 318.746094 54.558594 314.878906 C 58.324219 311.007813 64.359375 310.773438 68.03125 314.351563 Z M 85.605469 331.460938 C 89.277344 335.039063 89.203125 341.078125 85.4375 344.945313 C 81.667969 348.816406 75.632813 349.050781 71.960938 345.476563 C 68.285156 341.898438 68.363281 335.859375 72.128906 331.988281 C 75.898438 328.121094 81.929688 327.886719 85.605469 331.460938 Z M 103.179688 348.574219 C 106.851563 352.152344 106.777344 358.191406 103.011719 362.058594 C 99.242188 365.929688 93.207031 366.164063 89.535156 362.589844 C 85.859375 359.011719 85.9375 352.972656 89.707031 349.101563 C 93.472656 345.234375 99.507813 344.996094 103.179688 348.574219 Z M 120.753906 365.6875 C 124.425781 369.265625 124.351563 375.304688 120.585938 379.171875 C 116.816406 383.039063 110.78125 383.277344 107.109375 379.699219 C 103.433594 376.125 103.511719 370.085938 107.277344 366.214844 C 111.046875 362.347656 117.082031 362.109375 120.753906 365.6875 Z M 138.328125 382.800781 C 142 386.378906 141.925781 392.417969 138.160156 396.285156 C 134.390625 400.152344 128.355469 400.390625 124.683594 396.8125 C 121.007813 393.238281 121.085938 387.199219 124.855469 383.328125 C 128.621094 379.460938 134.65625 379.222656 138.328125 382.800781 Z M 164.742188 372.632813 C 161.070313 369.054688 155.035156 369.292969 151.269531 373.160156 C 147.5 377.03125 147.421875 383.070313 151.097656 386.644531 C 151.390625 386.929688 151.699219 387.191406 152.019531 387.429688 L 165.550781 373.535156 C 165.304688 373.222656 165.035156 372.917969 164.742188 372.632813 Z M 164.742188 372.632813 "/>
<path style=" stroke:none;fill-rule:evenodd;fill:rgb(86.326599%,0%,9.423828%);fill-opacity:1;" d="M 113.414063 107.652344 L 242.429688 233.285156 C 243.292969 234.125 243.3125 235.519531 242.472656 236.382813 L 183.039063 297.417969 C 182.195313 298.28125 180.804688 298.300781 179.941406 297.460938 L 50.921875 171.828125 C 50.058594 170.988281 50.042969 169.59375 50.882813 168.734375 L 110.316406 107.695313 C 111.15625 106.832031 112.550781 106.8125 113.414063 107.652344 Z M 119.859375 125.046875 C 123.535156 128.625 123.457031 134.664063 119.691406 138.53125 C 115.921875 142.402344 109.890625 142.636719 106.214844 139.0625 C 102.542969 135.484375 102.617188 129.445313 106.386719 125.574219 C 110.152344 121.707031 116.1875 121.46875 119.859375 125.046875 Z M 137.433594 142.160156 C 141.109375 145.738281 141.03125 151.777344 137.265625 155.644531 C 133.496094 159.515625 127.464844 159.75 123.789063 156.171875 C 120.117188 152.597656 120.191406 146.558594 123.960938 142.6875 C 127.726563 138.820313 133.761719 138.582031 137.433594 142.160156 Z M 155.007813 159.273438 C 158.683594 162.851563 158.605469 168.890625 154.839844 172.757813 C 151.070313 176.625 145.039063 176.863281 141.363281 173.285156 C 137.691406 169.710938 137.765625 163.671875 141.535156 159.800781 C 145.300781 155.933594 151.335938 155.695313 155.007813 159.273438 Z M 172.582031 176.386719 C 176.257813 179.964844 176.179688 186 172.414063 189.871094 C 168.644531 193.738281 162.609375 193.976563 158.9375 190.398438 C 155.265625 186.820313 155.339844 180.785156 159.109375 176.914063 C 162.875 173.046875 168.910156 172.808594 172.582031 176.386719 Z M 190.15625 193.5 C 193.832031 197.074219 193.753906 203.113281 189.988281 206.984375 C 186.21875 210.851563 180.1875 211.089844 176.511719 207.511719 C 172.839844 203.933594 172.914063 197.894531 176.683594 194.027344 C 180.449219 190.160156 186.484375 189.921875 190.15625 193.5 Z M 207.730469 210.613281 C 211.40625 214.1875 211.328125 220.226563 207.5625 224.09375 C 203.792969 227.964844 197.761719 228.203125 194.085938 224.625 C 190.414063 221.046875 190.488281 215.007813 194.257813 211.140625 C 198.023438 207.269531 204.058594 207.035156 207.730469 210.613281 Z M 225.304688 227.726563 C 228.980469 231.300781 228.902344 237.339844 225.136719 241.207031 C 221.367188 245.078125 215.335938 245.316406 211.660156 241.738281 C 207.988281 238.160156 208.0625 232.121094 211.832031 228.253906 C 215.597656 224.382813 221.632813 224.148438 225.304688 227.726563 Z M 109.304688 152.847656 C 112.976563 156.425781 112.898438 162.464844 109.132813 166.332031 C 105.367188 170.199219 99.332031 170.4375 95.660156 166.859375 C 91.984375 163.285156 92.0625 157.246094 95.828125 153.375 C 99.59375 149.507813 105.628906 149.269531 109.304688 152.847656 Z M 126.878906 169.960938 C 130.550781 173.539063 130.476563 179.574219 126.707031 183.445313 C 122.941406 187.3125 116.90625 187.550781 113.234375 183.972656 C 109.558594 180.394531 109.636719 174.359375 113.402344 170.488281 C 117.167969 166.621094 123.203125 166.382813 126.878906 169.960938 Z M 144.453125 187.074219 C 148.125 190.652344 148.050781 196.6875 144.28125 200.558594 C 140.515625 204.425781 134.480469 204.664063 130.808594 201.085938 C 127.132813 197.507813 127.210938 191.472656 130.976563 187.601563 C 134.742188 183.734375 140.777344 183.496094 144.453125 187.074219 Z M 162.023438 204.1875 C 165.699219 207.761719 165.625 213.800781 161.855469 217.671875 C 158.089844 221.539063 152.054688 221.777344 148.378906 218.199219 C 144.707031 214.621094 144.78125 208.582031 148.550781 204.714844 C 152.316406 200.84375 158.351563 200.609375 162.023438 204.1875 Z M 179.597656 221.300781 C 183.273438 224.875 183.195313 230.914063 179.429688 234.78125 C 175.660156 238.652344 169.628906 238.890625 165.953125 235.3125 C 162.28125 231.734375 162.355469 225.695313 166.125 221.828125 C 169.890625 217.957031 175.925781 217.722656 179.597656 221.300781 Z M 197.175781 238.414063 C 200.847656 241.988281 200.769531 248.027344 197.003906 251.894531 C 193.234375 255.765625 187.203125 256 183.527344 252.425781 C 179.855469 248.847656 179.929688 242.808594 183.699219 238.941406 C 187.464844 235.070313 193.5 234.835938 197.175781 238.414063 Z M 91.925781 135.925781 C 95.597656 139.503906 95.523438 145.542969 91.757813 149.410156 C 87.988281 153.28125 81.953125 153.515625 78.28125 149.941406 C 77.988281 149.652344 77.71875 149.351563 77.472656 149.035156 L 91 135.144531 C 91.324219 135.378906 91.632813 135.640625 91.925781 135.925781 Z M 82.890625 163.015625 C 86.5625 166.59375 86.484375 172.632813 82.71875 176.5 C 78.953125 180.367188 72.917969 180.605469 69.246094 177.027344 C 65.570313 173.453125 65.648438 167.414063 69.414063 163.542969 C 73.179688 159.675781 79.214844 159.4375 82.890625 163.015625 Z M 100.464844 180.128906 C 104.136719 183.707031 104.0625 189.742188 100.292969 193.613281 C 96.527344 197.480469 90.492188 197.71875 86.820313 194.140625 C 83.144531 190.5625 83.222656 184.527344 86.988281 180.65625 C 90.753906 176.789063 96.789063 176.550781 100.464844 180.128906 Z M 118.039063 197.242188 C 121.710938 200.820313 121.636719 206.855469 117.867188 210.726563 C 114.101563 214.59375 108.066406 214.832031 104.394531 211.253906 C 100.71875 207.675781 100.796875 201.640625 104.5625 197.769531 C 108.328125 193.902344 114.363281 193.664063 118.039063 197.242188 Z M 135.609375 214.355469 C 139.285156 217.929688 139.210938 223.96875 135.441406 227.839844 C 131.675781 231.707031 125.640625 231.945313 121.964844 228.367188 C 118.292969 224.789063 118.367188 218.75 122.136719 214.882813 C 125.902344 211.011719 131.9375 210.777344 135.609375 214.355469 Z M 153.183594 231.46875 C 156.859375 235.042969 156.78125 241.082031 153.015625 244.949219 C 149.246094 248.820313 143.214844 249.058594 139.539063 245.480469 C 135.867188 241.902344 135.941406 235.863281 139.710938 231.996094 C 143.476563 228.125 149.511719 227.890625 153.183594 231.46875 Z M 170.761719 248.582031 C 174.433594 252.15625 174.355469 258.195313 170.589844 262.0625 C 166.820313 265.933594 160.789063 266.167969 157.113281 262.59375 C 153.441406 259.015625 153.515625 252.976563 157.285156 249.109375 C 161.050781 245.238281 167.085938 245.003906 170.761719 248.582031 Z M 188.335938 265.695313 C 192.007813 269.269531 191.929688 275.308594 188.164063 279.175781 C 184.394531 283.046875 178.363281 283.28125 174.6875 279.707031 C 171.015625 276.128906 171.089844 270.089844 174.859375 266.222656 C 178.625 262.351563 184.660156 262.117188 188.335938 265.695313 Z M 214.746094 255.523438 C 211.074219 251.949219 205.039063 252.183594 201.273438 256.054688 C 197.503906 259.921875 197.429688 265.960938 201.101563 269.539063 C 201.394531 269.824219 201.707031 270.082031 202.027344 270.320313 L 215.554688 256.425781 C 215.308594 256.113281 215.039063 255.808594 214.746094 255.523438 Z M 214.746094 255.523438 "/>
<path style=" stroke:none;fill-rule:evenodd;fill:rgb(86.326599%,0%,9.423828%);fill-opacity:1;" d="M 168.839844 0.796875 L 297.859375 126.425781 C 298.722656 127.269531 298.742188 128.660156 297.898438 129.523438 L 238.464844 190.5625 C 237.625 191.425781 236.230469 191.441406 235.367188 190.601563 L 106.351563 64.972656 C 105.488281 64.132813 105.46875 62.738281 106.308594 61.875 L 165.746094 0.835938 C 166.585938 -0.0273438 167.976563 -0.0429688 168.839844 0.796875 Z M 175.289063 18.191406 C 178.960938 21.765625 178.886719 27.804688 175.117188 31.671875 C 171.351563 35.542969 165.316406 35.78125 161.644531 32.203125 C 157.96875 28.625 158.046875 22.585938 161.8125 18.71875 C 165.582031 14.847656 171.613281 14.613281 175.289063 18.191406 Z M 192.863281 35.304688 C 196.535156 38.878906 196.460938 44.917969 192.691406 48.785156 C 188.925781 52.65625 182.890625 52.894531 179.21875 49.316406 C 175.542969 45.738281 175.621094 39.699219 179.386719 35.832031 C 183.15625 31.960938 189.1875 31.726563 192.863281 35.304688 Z M 210.4375 52.417969 C 214.109375 55.992188 214.035156 62.03125 210.265625 65.898438 C 206.5 69.769531 200.464844 70.003906 196.792969 66.429688 C 193.117188 62.851563 193.195313 56.8125 196.960938 52.945313 C 200.730469 49.074219 206.761719 48.839844 210.4375 52.417969 Z M 228.011719 69.527344 C 231.683594 73.105469 231.609375 79.144531 227.839844 83.011719 C 224.074219 86.882813 218.039063 87.117188 214.367188 83.542969 C 210.691406 79.964844 210.769531 73.925781 214.535156 70.054688 C 218.304688 66.1875 224.335938 65.949219 228.011719 69.527344 Z M 245.585938 86.640625 C 249.257813 90.21875 249.183594 96.257813 245.414063 100.125 C 241.648438 103.996094 235.613281 104.230469 231.941406 100.652344 C 228.265625 97.078125 228.34375 91.039063 232.109375 87.167969 C 235.878906 83.300781 241.910156 83.0625 245.585938 86.640625 Z M 263.160156 103.753906 C 266.832031 107.332031 266.757813 113.371094 262.988281 117.238281 C 259.222656 121.105469 253.1875 121.34375 249.515625 117.765625 C 245.839844 114.191406 245.917969 108.152344 249.683594 104.28125 C 253.453125 100.414063 259.484375 100.175781 263.160156 103.753906 Z M 280.734375 120.867188 C 284.40625 124.445313 284.332031 130.480469 280.5625 134.351563 C 276.796875 138.21875 270.761719 138.457031 267.089844 134.878906 C 263.414063 131.300781 263.492188 125.265625 267.257813 121.394531 C 271.027344 117.527344 277.058594 117.289063 280.734375 120.867188 Z M 164.730469 45.992188 C 168.40625 49.566406 168.328125 55.605469 164.5625 59.472656 C 160.792969 63.34375 154.757813 63.578125 151.085938 60.003906 C 147.414063 56.425781 147.488281 50.386719 151.257813 46.519531 C 155.023438 42.648438 161.058594 42.414063 164.730469 45.992188 Z M 182.304688 63.105469 C 185.980469 66.679688 185.902344 72.71875 182.136719 76.585938 C 178.367188 80.457031 172.332031 80.691406 168.660156 77.117188 C 164.988281 73.539063 165.0625 67.5 168.832031 63.632813 C 172.597656 59.761719 178.632813 59.527344 182.304688 63.105469 Z M 199.878906 80.214844 C 203.554688 83.792969 203.476563 89.832031 199.710938 93.699219 C 195.941406 97.570313 189.90625 97.804688 186.234375 94.230469 C 182.5625 90.652344 182.636719 84.613281 186.40625 80.746094 C 190.171875 76.875 196.207031 76.640625 199.878906 80.214844 Z M 217.453125 97.328125 C 221.125 100.90625 221.050781 106.945313 217.285156 110.8125 C 213.515625 114.683594 207.480469 114.917969 203.808594 111.339844 C 200.132813 107.765625 200.210938 101.726563 203.976563 97.855469 C 207.746094 93.988281 213.777344 93.75 217.453125 97.328125 Z M 235.027344 114.441406 C 238.699219 118.019531 238.625 124.054688 234.859375 127.925781 C 231.089844 131.792969 225.054688 132.03125 221.382813 128.453125 C 217.707031 124.875 217.785156 118.839844 221.550781 114.96875 C 225.320313 111.101563 231.355469 110.863281 235.027344 114.441406 Z M 252.601563 131.554688 C 256.273438 135.132813 256.199219 141.167969 252.433594 145.039063 C 248.664063 148.90625 242.628906 149.144531 238.957031 145.566406 C 235.28125 141.988281 235.359375 135.953125 239.128906 132.082031 C 242.894531 128.214844 248.929688 127.976563 252.601563 131.554688 Z M 147.355469 29.070313 C 151.027344 32.644531 150.949219 38.683594 147.183594 42.550781 C 143.417969 46.421875 137.382813 46.660156 133.710938 43.082031 C 133.414063 42.796875 133.148438 42.492188 132.902344 42.179688 L 146.429688 28.285156 C 146.75 28.523438 147.058594 28.785156 147.355469 29.070313 Z M 138.316406 56.160156 C 141.992188 59.734375 141.914063 65.773438 138.148438 69.640625 C 134.378906 73.511719 128.34375 73.746094 124.671875 70.171875 C 121 66.59375 121.074219 60.554688 124.84375 56.6875 C 128.609375 52.816406 134.644531 52.582031 138.316406 56.160156 Z M 155.890625 73.273438 C 159.566406 76.847656 159.488281 82.886719 155.722656 86.753906 C 151.953125 90.625 145.917969 90.859375 142.246094 87.285156 C 138.574219 83.707031 138.648438 77.667969 142.417969 73.800781 C 146.183594 69.929688 152.21875 69.695313 155.890625 73.273438 Z M 173.464844 90.382813 C 177.140625 93.960938 177.0625 100 173.296875 103.867188 C 169.527344 107.738281 163.492188 107.972656 159.820313 104.398438 C 156.148438 100.820313 156.222656 94.78125 159.992188 90.914063 C 163.757813 87.042969 169.792969 86.808594 173.464844 90.382813 Z M 191.039063 107.496094 C 194.710938 111.074219 194.636719 117.113281 190.871094 120.980469 C 187.101563 124.851563 181.066406 125.085938 177.394531 121.507813 C 173.71875 117.933594 173.796875 111.894531 177.5625 108.023438 C 181.332031 104.15625 187.363281 103.917969 191.039063 107.496094 Z M 208.613281 124.609375 C 212.285156 128.1875 212.210938 134.222656 208.445313 138.09375 C 204.675781 141.960938 198.640625 142.199219 194.96875 138.621094 C 191.292969 135.042969 191.371094 129.007813 195.136719 125.136719 C 198.90625 121.269531 204.941406 121.03125 208.613281 124.609375 Z M 226.1875 141.722656 C 229.859375 145.300781 229.785156 151.335938 226.019531 155.207031 C 222.25 159.074219 216.214844 159.3125 212.542969 155.734375 C 208.867188 152.15625 208.945313 146.121094 212.710938 142.25 C 216.480469 138.382813 222.515625 138.144531 226.1875 141.722656 Z M 243.761719 158.835938 C 247.433594 162.414063 247.359375 168.449219 243.59375 172.320313 C 239.824219 176.1875 233.789063 176.425781 230.117188 172.847656 C 226.441406 169.269531 226.519531 163.234375 230.289063 159.363281 C 234.054688 155.496094 240.089844 155.257813 243.761719 158.835938 Z M 270.175781 148.667969 C 266.503906 145.089844 260.46875 145.328125 256.703125 149.195313 C 252.933594 153.066406 252.855469 159.101563 256.53125 162.679688 C 256.824219 162.964844 257.132813 163.226563 257.453125 163.464844 L 270.984375 149.570313 C 270.738281 149.253906 270.46875 148.953125 270.175781 148.667969 Z M 270.175781 148.667969 "/>
<g clip-path="url(#clip1)" clip-rule="nonzero">
<path style=" stroke:none;fill-rule:evenodd;fill:rgb(86.326599%,0%,9.423828%);fill-opacity:1;" d="M 357.566406 451.898438 L 357.566406 455.40625 C 357.585938 458.738281 357.394531 461.449219 356.992188 463.574219 C 356.59375 465.683594 355.847656 467.242188 354.773438 468.25 C 353.695313 469.261719 352.167969 469.757813 350.171875 469.757813 C 348.261719 469.757813 346.789063 469.242188 345.710938 468.179688 C 344.652344 467.136719 343.890625 465.503906 343.421875 463.328125 C 342.96875 461.148438 342.691406 458.347656 342.585938 454.964844 C 342.484375 451.5625 342.449219 447.542969 342.464844 442.863281 L 342.464844 441.375 C 342.449219 436.964844 342.484375 433.175781 342.605469 429.984375 C 342.707031 426.777344 343.003906 424.15625 343.472656 422.101563 C 343.941406 420.046875 344.703125 418.539063 345.761719 417.550781 C 346.824219 416.558594 348.296875 416.0625 350.171875 416.078125 C 352.0625 416.0625 353.574219 416.574219 354.667969 417.621094 C 355.761719 418.648438 356.558594 420.261719 357.027344 422.4375 C 357.515625 424.617188 357.757813 427.417969 357.773438 430.851563 L 375.582031 430.851563 L 375.582031 430.109375 C 375.582031 420.4375 373.449219 413.15625 369.160156 408.285156 C 364.890625 403.429688 358.453125 400.984375 349.859375 400.984375 C 344.859375 400.984375 340.574219 401.855469 336.980469 403.605469 C 333.386719 405.34375 330.488281 407.949219 328.300781 411.402344 C 327.035156 413.421875 326.078125 415.917969 325.453125 418.894531 C 324.828125 421.871094 324.414063 425.363281 324.207031 429.347656 C 323.996094 433.332031 323.910156 437.832031 323.925781 442.863281 C 323.910156 447.898438 323.996094 452.394531 324.207031 456.382813 C 324.414063 460.367188 324.828125 463.859375 325.453125 466.835938 C 326.078125 469.808594 327.035156 472.308594 328.300781 474.328125 C 330.539063 477.835938 333.457031 480.441406 337.085938 482.15625 C 340.710938 483.894531 345.070313 484.746094 350.171875 484.746094 C 358.851563 484.746094 365.273438 482.371094 369.457031 477.585938 C 373.640625 472.820313 375.707031 465.59375 375.6875 455.941406 C 375.6875 455.25 375.6875 454.574219 375.667969 453.917969 C 375.667969 453.265625 375.636719 452.589844 375.582031 451.898438 Z M 415.160156 482.832031 L 432.34375 482.832031 C 431.472656 480.972656 430.917969 478.652344 430.640625 475.867188 C 430.363281 473.085938 430.242188 469.808594 430.257813 466.035156 L 430.257813 442.863281 C 430.277344 440.667969 430.226563 438.683594 430.136719 436.894531 C 430.035156 435.121094 429.792969 433.511719 429.410156 432.078125 C 429.011719 430.640625 428.382813 429.3125 427.535156 428.125 C 426.683594 426.9375 425.503906 425.824219 424.011719 424.792969 C 422.292969 423.609375 420.105469 422.703125 417.484375 422.050781 C 414.84375 421.410156 411.773438 421.074219 408.285156 421.074219 C 400.753906 421.058594 395.128906 422.703125 391.429688 426.019531 C 387.734375 429.332031 385.875 434.378906 385.894531 441.164063 L 402.347656 441.164063 L 402.347656 440.738281 C 402.347656 438.1875 402.816406 436.292969 403.789063 435.050781 C 404.761719 433.8125 406.253906 433.191406 408.285156 433.191406 C 409.953125 433.191406 411.21875 433.652344 412.085938 434.59375 C 412.953125 435.511719 413.386719 436.839844 413.386719 438.613281 C 413.386719 439.941406 413.074219 441.039063 412.433594 441.890625 C 411.808594 442.742188 410.871094 443.46875 409.65625 444.085938 C 408.421875 444.707031 406.933594 445.328125 405.179688 445.964844 C 403.40625 446.601563 401.394531 447.382813 399.121094 448.285156 C 395.753906 449.648438 392.992188 451.191406 390.824219 452.925781 C 388.652344 454.664063 387.039063 456.683594 385.996094 458.984375 C 384.957031 461.289063 384.433594 464 384.433594 467.101563 C 384.453125 470.554688 385.0625 473.546875 386.257813 476.0625 C 387.472656 478.578125 389.191406 480.527344 391.429688 481.910156 C 393.652344 483.292969 396.324219 483.984375 399.433594 484 C 402.296875 484 404.953125 483.433594 407.417969 482.316406 C 409.863281 481.203125 412.136719 479.535156 414.222656 477.304688 Z M 413.074219 453.917969 L 413.074219 460.617188 C 413.09375 462.988281 412.882813 464.992188 412.46875 466.585938 C 412.070313 468.199219 411.355469 469.421875 410.351563 470.234375 C 409.34375 471.050781 407.957031 471.457031 406.203125 471.457031 C 404.570313 471.441406 403.285156 470.875 402.332031 469.757813 C 401.394531 468.640625 400.90625 467.117188 400.890625 465.1875 C 400.890625 462.441406 401.878906 460.171875 403.894531 458.367188 C 405.90625 456.542969 408.960938 455.070313 413.074219 453.917969 Z M 457.441406 402.898438 L 441.089844 402.898438 L 441.089844 482.832031 L 457.441406 482.832031 Z M 468.585938 482.832031 L 484.933594 482.832031 L 484.933594 422.777344 L 468.585938 422.777344 Z M 468.585938 416.824219 L 484.933594 416.824219 L 484.933594 402.261719 L 468.585938 402.261719 Z M 538.363281 402.898438 L 522.011719 402.898438 L 522.011719 428.304688 C 520.519531 425.929688 518.816406 424.175781 516.945313 423.058594 C 515.050781 421.941406 512.882813 421.375 510.453125 421.394531 C 507.066406 421.394531 504.339844 422.050781 502.292969 423.394531 C 500.226563 424.722656 498.683594 426.761719 497.625 429.488281 C 496.582031 432.21875 495.886719 435.65625 495.523438 439.816406 C 495.175781 443.980469 495.019531 448.90625 495.039063 454.558594 C 495.019531 458.632813 495.074219 462.246094 495.210938 465.398438 C 495.351563 468.570313 495.699219 471.332031 496.253906 473.691406 C 496.824219 476.027344 497.726563 478.011719 498.996094 479.640625 C 500.261719 481.203125 501.824219 482.390625 503.699219 483.238281 C 505.574219 484.089844 507.675781 484.515625 510.035156 484.53125 C 512.8125 484.53125 515.3125 483.824219 517.550781 482.425781 C 519.789063 481.023438 521.679688 478.953125 523.261719 476.242188 L 523.261719 482.832031 L 538.363281 482.832031 Z M 517.011719 435.636719 C 518.417969 435.636719 519.511719 436.097656 520.292969 437.054688 C 521.058594 438.011719 521.59375 439.464844 521.890625 441.449219 C 522.203125 443.433594 522.339844 445.949219 522.324219 449.03125 C 522.339844 452.695313 522.308594 455.886719 522.238281 458.613281 C 522.167969 461.359375 521.960938 463.628906 521.613281 465.433594 C 521.265625 467.222656 520.691406 468.589844 519.910156 469.472656 C 519.113281 470.378906 518.019531 470.820313 516.59375 470.820313 C 515.382813 470.820313 514.445313 470.464844 513.75 469.757813 C 513.074219 469.046875 512.570313 467.96875 512.257813 466.53125 C 511.960938 465.078125 511.769531 463.273438 511.683594 461.09375 C 511.613281 458.898438 511.582031 456.328125 511.597656 453.386719 C 511.582031 449.261719 511.683594 445.875 511.910156 443.253906 C 512.152344 440.632813 512.65625 438.703125 513.4375 437.480469 C 514.21875 436.238281 515.398438 435.617188 517.011719 435.636719 Z M 577.9375 482.832031 L 595.121094 482.832031 C 594.253906 480.972656 593.699219 478.652344 593.417969 475.867188 C 593.144531 473.085938 593.019531 469.808594 593.039063 466.035156 L 593.039063 442.863281 C 593.054688 440.667969 593.003906 438.683594 592.917969 436.894531 C 592.8125 435.121094 592.570313 433.511719 592.1875 432.078125 C 591.789063 430.640625 591.164063 429.3125 590.3125 428.125 C 589.464844 426.9375 588.28125 425.824219 586.789063 424.792969 C 585.070313 423.609375 582.882813 422.703125 580.261719 422.050781 C 577.625 421.410156 574.554688 421.074219 571.0625 421.074219 C 563.53125 421.058594 557.90625 422.703125 554.210938 426.019531 C 550.511719 429.332031 548.65625 434.378906 548.671875 441.164063 L 565.128906 441.164063 L 565.128906 440.738281 C 565.128906 438.1875 565.597656 436.292969 566.570313 435.050781 C 567.539063 433.8125 569.035156 433.191406 571.0625 433.191406 C 572.730469 433.191406 573.996094 433.652344 574.867188 434.59375 C 575.734375 435.511719 576.167969 436.839844 576.167969 438.613281 C 576.167969 439.941406 575.855469 441.039063 575.210938 441.890625 C 574.585938 442.742188 573.648438 443.46875 572.4375 444.085938 C 571.203125 444.707031 569.710938 445.328125 567.957031 445.964844 C 566.1875 446.601563 564.171875 447.382813 561.898438 448.285156 C 558.53125 449.648438 555.769531 451.191406 553.601563 452.925781 C 551.433594 454.664063 549.816406 456.683594 548.777344 458.984375 C 547.734375 461.289063 547.214844 464 547.214844 467.101563 C 547.230469 470.554688 547.839844 473.546875 549.035156 476.0625 C 550.25 478.578125 551.96875 480.527344 554.210938 481.910156 C 556.433594 483.292969 559.105469 483.984375 562.210938 484 C 565.074219 484 567.730469 483.433594 570.195313 482.316406 C 572.644531 481.203125 574.917969 479.535156 577 477.304688 Z M 575.855469 453.917969 L 575.855469 460.617188 C 575.871094 462.988281 575.664063 464.992188 575.246094 466.585938 C 574.847656 468.199219 574.136719 469.421875 573.128906 470.234375 C 572.121094 471.050781 570.734375 471.457031 568.980469 471.457031 C 567.347656 471.441406 566.066406 470.875 565.109375 469.757813 C 564.171875 468.640625 563.6875 467.117188 563.667969 465.1875 C 563.667969 462.441406 564.660156 460.171875 566.671875 458.367188 C 568.6875 456.542969 571.742188 455.070313 575.855469 453.917969 Z M 646.152344 402.898438 L 629.800781 402.898438 L 629.800781 428.304688 C 628.308594 425.929688 626.609375 424.175781 624.734375 423.058594 C 622.839844 421.941406 620.671875 421.375 618.242188 421.394531 C 614.855469 421.394531 612.132813 422.050781 610.082031 423.394531 C 608.015625 424.722656 606.472656 426.761719 605.414063 429.488281 C 604.375 432.21875 603.679688 435.65625 603.3125 439.816406 C 602.964844 443.980469 602.8125 448.90625 602.828125 454.558594 C 602.8125 458.632813 602.863281 462.246094 603.003906 465.398438 C 603.140625 468.570313 603.488281 471.332031 604.042969 473.691406 C 604.613281 476.027344 605.519531 478.011719 606.785156 479.640625 C 608.054688 481.203125 609.613281 482.390625 611.488281 483.238281 C 613.363281 484.089844 615.464844 484.515625 617.824219 484.53125 C 620.601563 484.53125 623.101563 483.824219 625.339844 482.425781 C 627.582031 481.023438 629.472656 478.953125 631.050781 476.242188 L 631.050781 482.832031 L 646.152344 482.832031 Z M 624.804688 435.636719 C 626.210938 435.636719 627.300781 436.097656 628.082031 437.054688 C 628.847656 438.011719 629.386719 439.464844 629.679688 441.449219 C 629.992188 443.433594 630.132813 445.949219 630.113281 449.03125 C 630.132813 452.695313 630.097656 455.886719 630.027344 458.613281 C 629.957031 461.359375 629.75 463.628906 629.402344 465.433594 C 629.054688 467.222656 628.484375 468.589844 627.703125 469.472656 C 626.902344 470.378906 625.808594 470.820313 624.386719 470.820313 C 623.171875 470.820313 622.234375 470.464844 621.539063 469.757813 C 620.863281 469.046875 620.359375 467.96875 620.046875 466.53125 C 619.75 465.078125 619.5625 463.273438 619.476563 461.09375 C 619.40625 458.898438 619.371094 456.328125 619.386719 453.386719 C 619.371094 449.261719 619.476563 445.875 619.699219 443.253906 C 619.945313 440.632813 620.445313 438.703125 621.226563 437.480469 C 622.007813 436.238281 623.1875 435.617188 624.804688 435.636719 Z M 732.144531 503.027344 L 732.144531 422.777344 L 716.9375 422.777344 L 716.9375 429.578125 C 715.359375 426.867188 713.464844 424.832031 711.226563 423.449219 C 708.988281 422.085938 706.488281 421.394531 703.710938 421.394531 C 700.640625 421.394531 698.019531 422.085938 695.847656 423.449219 C 693.679688 424.832031 691.996094 426.867188 690.796875 429.578125 C 689.984375 431.386719 689.425781 434.078125 689.132813 437.675781 C 688.835938 441.269531 688.695313 445.789063 688.714844 451.261719 C 688.695313 456.914063 688.855469 461.839844 689.199219 466.019531 C 689.5625 470.183594 690.257813 473.65625 691.300781 476.382813 C 692.359375 479.128906 693.90625 481.164063 695.96875 482.511719 C 698.019531 483.859375 700.742188 484.53125 704.128906 484.53125 C 706.558594 484.53125 708.726563 483.964844 710.621094 482.8125 C 712.496094 481.660156 714.195313 479.910156 715.6875 477.515625 L 715.6875 503.027344 Z M 710.691406 470.289063 C 709.421875 470.289063 708.433594 469.933594 707.703125 469.191406 C 706.976563 468.445313 706.453125 467.328125 706.125 465.808594 C 705.792969 464.265625 705.570313 462.335938 705.484375 459.976563 C 705.394531 457.621094 705.359375 454.824219 705.378906 451.582031 L 705.378906 448.5 C 705.359375 445.453125 705.464844 442.9375 705.691406 440.96875 C 705.933594 438.984375 706.402344 437.515625 707.113281 436.539063 C 707.808594 435.585938 708.867188 435.105469 710.273438 435.105469 C 711.695313 435.105469 712.789063 435.546875 713.589844 436.453125 C 714.367188 437.335938 714.941406 438.683594 715.289063 440.492188 C 715.636719 442.296875 715.84375 444.566406 715.914063 447.292969 C 715.984375 450.023438 716.019531 453.226563 716 456.894531 C 716.019531 459.976563 715.878906 462.492188 715.566406 464.476563 C 715.269531 466.460938 714.734375 467.914063 713.96875 468.871094 C 713.191406 469.828125 712.09375 470.289063 710.691406 470.289063 Z M 786.191406 422.777344 L 769.84375 422.777344 L 769.84375 460.296875 C 769.828125 463.664063 769.289063 466.214844 768.265625 467.96875 C 767.222656 469.722656 765.800781 470.589844 764.011719 470.605469 C 762.640625 470.605469 761.667969 470.183594 761.078125 469.367188 C 760.488281 468.535156 760.125 467.328125 760.003906 465.71875 C 759.863281 464.125 759.808594 462.175781 759.84375 459.871094 L 759.84375 422.777344 L 743.390625 422.777344 L 743.390625 464.65625 C 743.371094 468.976563 743.824219 472.574219 744.742188 475.425781 C 745.648438 478.296875 747.070313 480.441406 749.015625 481.875 C 750.976563 483.292969 753.507813 484 756.617188 484 C 759.671875 484.019531 762.34375 483.34375 764.636719 482 C 766.925781 480.667969 768.976563 478.5625 770.78125 475.710938 L 770.78125 482.832031 L 786.191406 482.832031 Z M 813.171875 444.671875 C 813.121094 444.085938 813.078125 443.503906 813.078125 442.9375 C 813.070313 442.386719 813.070313 441.855469 813.070313 441.375 C 813.03125 438.367188 813.441406 436.132813 814.320313 434.699219 C 815.179688 433.246094 816.640625 432.535156 818.691406 432.554688 C 820.671875 432.535156 822.109375 433.246094 823.050781 434.664063 C 823.960938 436.082031 824.429688 438.242188 824.421875 441.164063 C 824.421875 441.695313 824.398438 442.246094 824.351563 442.828125 C 824.308594 443.414063 824.261719 444.035156 824.210938 444.671875 Z M 823.789063 461.785156 C 823.839844 462.316406 823.890625 462.792969 823.929688 463.253906 C 823.980469 463.714844 824 464.175781 824 464.65625 C 824 469.757813 822.121094 472.308594 818.371094 472.308594 C 816.871094 472.308594 815.679688 471.917969 814.839844 471.136719 C 813.980469 470.339844 813.378906 469.121094 813.03125 467.453125 C 812.699219 465.789063 812.53125 463.664063 812.539063 461.042969 C 812.539063 460.191406 812.558594 459.269531 812.609375 458.261719 C 812.648438 457.269531 812.699219 456.203125 812.75 455.089844 L 839.511719 455.089844 L 839.511719 447.859375 C 839.53125 444.992188 839.480469 442.367188 839.339844 439.960938 C 839.199219 437.566406 838.820313 435.355469 838.230469 433.371094 C 837.640625 431.367188 836.691406 429.542969 835.351563 427.878906 C 831.808594 423.414063 826.191406 421.179688 818.480469 421.179688 C 814.621094 421.179688 811.28125 421.710938 808.410156 422.742188 C 805.570313 423.785156 803.21875 425.328125 801.398438 427.347656 C 799.730469 429.242188 798.519531 431.457031 797.75 433.953125 C 796.988281 436.453125 796.519531 439.320313 796.328125 442.527344 C 796.140625 445.734375 796.050781 449.347656 796.089844 453.386719 C 796.070313 457.355469 796.179688 460.898438 796.398438 464.050781 C 796.621094 467.207031 797.089844 469.96875 797.839844 472.378906 C 798.570313 474.789063 799.679688 476.84375 801.191406 478.578125 C 802.789063 480.351563 804.988281 481.769531 807.839844 482.8125 C 810.671875 483.859375 813.980469 484.40625 817.75 484.425781 C 824.878906 484.425781 830.25 482.652344 833.820313 479.113281 C 837.421875 475.566406 839.199219 470.289063 839.199219 463.273438 L 839.199219 461.785156 Z M 876.679688 463.804688 L 876.679688 465.292969 C 876.691406 469.3125 877.488281 472.75 879.070313 475.585938 C 880.671875 478.4375 882.980469 480.617188 886.011719 482.140625 C 889.050781 483.644531 892.730469 484.40625 897.089844 484.425781 C 901.621094 484.40625 905.441406 483.664063 908.578125 482.195313 C 911.71875 480.707031 914.121094 478.542969 915.769531 475.710938 C 917.398438 472.894531 918.210938 469.457031 918.230469 465.398438 C 918.230469 462.652344 917.871094 460.277344 917.160156 458.261719 C 916.441406 456.257813 915.390625 454.488281 913.980469 452.964844 C 912.558594 451.4375 910.800781 450.039063 908.699219 448.78125 C 906.589844 447.507813 904.160156 446.25 901.359375 444.992188 C 899.96875 444.371094 898.738281 443.804688 897.628906 443.273438 C 896.53125 442.757813 895.601563 442.226563 894.820313 441.679688 C 894.03125 441.128906 893.441406 440.472656 893.03125 439.746094 C 892.609375 439.003906 892.410156 438.097656 892.410156 437.019531 C 892.421875 435.511719 892.910156 434.308594 893.859375 433.40625 C 894.820313 432.5 896.140625 432.039063 897.820313 432.023438 C 899.730469 432.003906 901.101563 432.679688 901.929688 434.023438 C 902.761719 435.371094 903.199219 437.515625 903.238281 440.417969 L 917.609375 440.417969 L 917.609375 439.359375 C 917.589844 435.441406 916.828125 432.148438 915.261719 429.453125 C 913.71875 426.742188 911.441406 424.6875 908.460938 423.289063 C 905.46875 421.890625 901.828125 421.179688 897.511719 421.179688 C 893.25 421.199219 889.628906 421.976563 886.621094 423.464844 C 883.621094 424.972656 881.308594 427.078125 879.710938 429.753906 C 878.121094 432.449219 877.320313 435.566406 877.300781 439.144531 C 877.300781 441.554688 877.738281 443.855469 878.609375 446.035156 C 879.46875 448.234375 880.738281 450.183594 882.410156 451.898438 C 883.800781 453.335938 885.320313 454.574219 886.941406 455.621094 C 888.570313 456.664063 890.269531 457.605469 892.039063 458.453125 C 893.789063 459.304688 895.601563 460.171875 897.398438 461.042969 C 898.648438 461.625 899.730469 462.210938 900.609375 462.777344 C 901.5 463.34375 902.179688 463.980469 902.628906 464.726563 C 903.101563 465.46875 903.339844 466.410156 903.339844 467.523438 C 903.320313 469.101563 902.800781 470.359375 901.78125 471.332031 C 900.769531 472.308594 899.421875 472.804688 897.710938 472.839844 C 895.699219 472.859375 894.160156 472.113281 893.128906 470.640625 C 892.089844 469.15625 891.5 466.886719 891.359375 463.804688 Z M 941.558594 444.671875 C 941.511719 444.085938 941.46875 443.503906 941.46875 442.9375 C 941.460938 442.386719 941.460938 441.855469 941.460938 441.375 C 941.421875 438.367188 941.839844 436.132813 942.710938 434.699219 C 943.570313 433.246094 945.03125 432.535156 947.078125 432.554688 C 949.058594 432.535156 950.5 433.246094 951.441406 434.664063 C 952.359375 436.082031 952.828125 438.242188 952.808594 441.164063 C 952.808594 441.695313 952.789063 442.246094 952.738281 442.828125 C 952.699219 443.414063 952.648438 444.035156 952.601563 444.671875 Z M 952.179688 461.785156 C 952.238281 462.316406 952.289063 462.792969 952.320313 463.253906 C 952.371094 463.714844 952.390625 464.175781 952.390625 464.65625 C 952.390625 469.757813 950.511719 472.308594 946.769531 472.308594 C 945.261719 472.308594 944.078125 471.917969 943.230469 471.136719 C 942.371094 470.339844 941.769531 469.121094 941.421875 467.453125 C 941.089844 465.789063 940.921875 463.664063 940.941406 461.042969 C 940.941406 460.191406 940.949219 459.269531 941 458.261719 C 941.039063 457.269531 941.089844 456.203125 941.140625 455.089844 L 967.910156 455.089844 L 967.910156 447.859375 C 967.929688 444.992188 967.871094 442.367188 967.738281 439.960938 C 967.601563 437.566406 967.210938 435.355469 966.621094 433.371094 C 966.03125 431.367188 965.078125 429.542969 963.738281 427.878906 C 960.199219 423.414063 954.578125 421.179688 946.871094 421.179688 C 943.019531 421.179688 939.671875 421.710938 936.800781 422.742188 C 933.960938 423.785156 931.609375 425.328125 929.789063 427.347656 C 928.121094 429.242188 926.910156 431.457031 926.148438 433.953125 C 925.378906 436.453125 924.910156 439.320313 924.71875 442.527344 C 924.53125 445.734375 924.441406 449.347656 924.480469 453.386719 C 924.460938 457.355469 924.570313 460.898438 924.789063 464.050781 C 925.019531 467.207031 925.488281 469.96875 926.230469 472.378906 C 926.960938 474.789063 928.070313 476.84375 929.578125 478.578125 C 931.179688 480.351563 933.390625 481.769531 936.230469 482.8125 C 939.058594 483.859375 942.371094 484.40625 946.140625 484.425781 C 953.28125 484.425781 958.640625 482.652344 962.21875 479.113281 C 965.808594 475.566406 967.601563 470.289063 967.601563 463.273438 L 967.601563 461.785156 Z M 1004.628906 482.832031 L 1022.066406 482.832031 L 1022.066406 422.777344 L 1004.628906 422.777344 Z M 1004.628906 416.824219 L 1022.066406 416.824219 L 1022.066406 402.261719 L 1004.628906 402.261719 Z M 1033.960938 482.832031 L 1050.5 482.832031 L 1050.5 445.308594 C 1050.519531 441.945313 1051.078125 439.390625 1052.171875 437.636719 C 1053.261719 435.886719 1054.710938 435 1056.5 435 C 1057.859375 435 1058.820313 435.371094 1059.429688 436.113281 C 1060.019531 436.859375 1060.410156 437.957031 1060.539063 439.410156 C 1060.691406 440.863281 1060.738281 442.652344 1060.71875 444.777344 L 1060.71875 482.832031 L 1077.160156 482.832031 L 1077.160156 445.308594 C 1077.199219 441.945313 1077.761719 439.390625 1078.828125 437.636719 C 1079.921875 435.886719 1081.371094 435 1083.160156 435 C 1084.511719 435 1085.480469 435.390625 1086.089844 436.132813 C 1086.679688 436.894531 1087.070313 437.992188 1087.199219 439.445313 C 1087.351563 440.898438 1087.398438 442.6875 1087.378906 444.777344 L 1087.378906 482.832031 L 1104.160156 482.832031 L 1104.160156 440.953125 C 1104.179688 436.628906 1103.730469 433.03125 1102.820313 430.164063 C 1101.921875 427.3125 1100.46875 425.167969 1098.488281 423.734375 C 1096.511719 422.3125 1093.921875 421.605469 1090.710938 421.605469 C 1087.621094 421.605469 1084.898438 422.28125 1082.53125 423.644531 C 1080.160156 425.007813 1078.03125 427.078125 1076.160156 429.898438 C 1075.03125 427.1875 1073.429688 425.113281 1071.351563 423.714844 C 1069.261719 422.3125 1066.800781 421.605469 1063.941406 421.605469 C 1060.859375 421.589844 1058.148438 422.261719 1055.820313 423.589844 C 1053.460938 424.9375 1051.371094 427.046875 1049.511719 429.898438 L 1049.511719 422.777344 L 1033.960938 422.777344 Z M 1115.710938 503.027344 L 1133.148438 503.027344 L 1133.148438 477.515625 C 1134.738281 479.910156 1136.570313 481.660156 1138.628906 482.8125 C 1140.660156 483.964844 1142.988281 484.53125 1145.589844 484.53125 C 1149.199219 484.53125 1152.089844 483.859375 1154.269531 482.511719 C 1156.460938 481.164063 1158.101563 479.128906 1159.210938 476.382813 C 1160.300781 473.65625 1161.050781 470.183594 1161.421875 466.019531 C 1161.769531 461.839844 1161.949219 456.914063 1161.921875 451.261719 C 1161.941406 447.1875 1161.878906 443.574219 1161.730469 440.402344 C 1161.578125 437.25 1161.210938 434.484375 1160.621094 432.128906 C 1160.011719 429.792969 1159.050781 427.808594 1157.691406 426.175781 C 1156.339844 424.636719 1154.679688 423.449219 1152.679688 422.632813 C 1150.679688 421.820313 1148.441406 421.394531 1145.921875 421.394531 C 1142.960938 421.394531 1140.289063 422.085938 1137.910156 423.449219 C 1135.519531 424.832031 1133.5 426.867188 1131.820313 429.578125 L 1131.820313 422.777344 L 1115.710938 422.777344 Z M 1138.480469 470.289063 C 1136.980469 470.289063 1135.808594 469.828125 1134.980469 468.871094 C 1134.171875 467.914063 1133.589844 466.460938 1133.28125 464.476563 C 1132.941406 462.492188 1132.800781 459.976563 1132.820313 456.894531 C 1132.800781 453.226563 1132.828125 450.023438 1132.910156 447.292969 C 1132.980469 444.566406 1133.199219 442.296875 1133.570313 440.492188 C 1133.941406 438.683594 1134.550781 437.335938 1135.390625 436.453125 C 1136.238281 435.546875 1137.410156 435.105469 1138.929688 435.105469 C 1140.429688 435.105469 1141.589844 435.601563 1142.390625 436.609375 C 1143.199219 437.636719 1143.761719 439.179688 1144.050781 441.269531 C 1144.351563 443.359375 1144.488281 446.019531 1144.480469 449.242188 C 1144.511719 454.148438 1144.398438 458.152344 1144.160156 461.269531 C 1143.921875 464.371094 1143.371094 466.65625 1142.488281 468.109375 C 1141.640625 469.582031 1140.308594 470.304688 1138.480469 470.289063 Z M 1170.46875 452.855469 C 1170.449219 458.453125 1170.820313 463.253906 1171.601563 467.257813 C 1172.371094 471.246094 1173.648438 474.523438 1175.429688 477.054688 C 1177.210938 479.589844 1179.589844 481.449219 1182.609375 482.652344 C 1185.609375 483.839844 1189.351563 484.441406 1193.800781 484.425781 C 1198.21875 484.441406 1201.941406 483.839844 1204.941406 482.652344 C 1207.941406 481.449219 1210.328125 479.589844 1212.121094 477.054688 C 1213.921875 474.523438 1215.191406 471.246094 1215.96875 467.257813 C 1216.75 463.253906 1217.140625 458.453125 1217.121094 452.855469 C 1217.140625 447.257813 1216.769531 442.457031 1215.988281 438.4375 C 1215.210938 434.433594 1213.941406 431.15625 1212.160156 428.605469 C 1210.378906 426.054688 1207.988281 424.175781 1204.980469 422.96875 C 1201.980469 421.765625 1198.261719 421.164063 1193.800781 421.179688 C 1189.371094 421.164063 1185.648438 421.765625 1182.648438 422.96875 C 1179.648438 424.175781 1177.261719 426.054688 1175.46875 428.605469 C 1173.671875 431.15625 1172.390625 434.433594 1171.621094 438.4375 C 1170.839844 442.457031 1170.449219 447.257813 1170.46875 452.855469 Z M 1188.238281 452.855469 C 1188.199219 448.425781 1188.300781 444.8125 1188.5 441.996094 C 1188.710938 439.164063 1189.191406 437.070313 1189.980469 435.726563 C 1190.78125 434.378906 1192.050781 433.707031 1193.800781 433.722656 C 1195.148438 433.722656 1196.199219 434.097656 1196.960938 434.839844 C 1197.71875 435.601563 1198.28125 436.753906 1198.609375 438.3125 C 1198.960938 439.871094 1199.160156 441.855469 1199.261719 444.265625 C 1199.328125 446.671875 1199.371094 449.542969 1199.351563 452.855469 C 1199.371094 456.167969 1199.328125 459.039063 1199.261719 461.429688 C 1199.160156 463.839844 1198.960938 465.808594 1198.609375 467.347656 C 1198.28125 468.890625 1197.71875 470.039063 1196.960938 470.785156 C 1196.199219 471.527344 1195.148438 471.882813 1193.800781 471.882813 C 1192.050781 471.902344 1190.78125 471.226563 1189.980469 469.898438 C 1189.191406 468.570313 1188.710938 466.496094 1188.5 463.699219 C 1188.300781 460.882813 1188.199219 457.269531 1188.238281 452.855469 Z M 1227.449219 482.832031 L 1245 482.832031 L 1245 445.308594 C 1245.019531 441.945313 1245.589844 439.390625 1246.691406 437.636719 C 1247.800781 435.886719 1249.320313 435 1251.21875 435 C 1252.679688 435 1253.71875 435.425781 1254.351563 436.238281 C 1254.980469 437.070313 1255.371094 438.277344 1255.5 439.871094 C 1255.648438 441.464844 1255.699219 443.433594 1255.660156 445.734375 L 1255.660156 482.832031 L 1273.109375 482.832031 L 1273.109375 440.953125 C 1273.121094 436.628906 1272.640625 433.03125 1271.699219 430.164063 C 1270.75 427.3125 1269.230469 425.167969 1267.179688 423.734375 C 1265.121094 422.3125 1262.421875 421.605469 1259.109375 421.605469 C 1255.851563 421.589844 1252.980469 422.261719 1250.5 423.589844 C 1248.019531 424.9375 1245.820313 427.046875 1243.890625 429.898438 L 1243.890625 422.777344 L 1227.449219 422.777344 Z M 1301.429688 444.671875 C 1301.371094 444.085938 1301.339844 443.503906 1301.339844 442.9375 C 1301.320313 442.386719 1301.320313 441.855469 1301.320313 441.375 C 1301.28125 438.367188 1301.730469 436.132813 1302.648438 434.699219 C 1303.578125 433.246094 1305.128906 432.535156 1307.320313 432.554688 C 1309.429688 432.535156 1310.960938 433.246094 1311.960938 434.664063 C 1312.941406 436.082031 1313.441406 438.242188 1313.429688 441.164063 C 1313.429688 441.695313 1313.410156 442.246094 1313.351563 442.828125 C 1313.320313 443.414063 1313.261719 444.035156 1313.199219 444.671875 Z M 1312.761719 461.785156 C 1312.820313 462.316406 1312.871094 462.792969 1312.910156 463.253906 C 1312.960938 463.714844 1312.980469 464.175781 1312.980469 464.65625 C 1312.980469 469.757813 1310.980469 472.308594 1306.980469 472.308594 C 1305.371094 472.308594 1304.109375 471.917969 1303.210938 471.136719 C 1302.300781 470.339844 1301.648438 469.121094 1301.28125 467.453125 C 1300.929688 465.789063 1300.738281 463.664063 1300.761719 461.042969 C 1300.761719 460.191406 1300.78125 459.269531 1300.839844 458.261719 C 1300.871094 457.269531 1300.929688 456.203125 1300.980469 455.089844 L 1329.53125 455.089844 L 1329.53125 447.859375 C 1329.550781 444.992188 1329.488281 442.367188 1329.351563 439.960938 C 1329.199219 437.566406 1328.789063 435.355469 1328.160156 433.371094 C 1327.53125 431.367188 1326.511719 429.542969 1325.089844 427.878906 C 1321.308594 423.414063 1315.320313 421.179688 1307.089844 421.179688 C 1302.980469 421.179688 1299.410156 421.710938 1296.359375 422.742188 C 1293.320313 423.785156 1290.820313 425.328125 1288.878906 427.347656 C 1287.101563 429.242188 1285.800781 431.457031 1284.988281 433.953125 C 1284.179688 436.453125 1283.679688 439.320313 1283.46875 442.527344 C 1283.269531 445.734375 1283.179688 449.347656 1283.210938 453.386719 C 1283.191406 457.355469 1283.300781 460.898438 1283.550781 464.050781 C 1283.78125 467.207031 1284.28125 469.96875 1285.078125 472.378906 C 1285.859375 474.789063 1287.050781 476.84375 1288.660156 478.578125 C 1290.359375 480.351563 1292.710938 481.769531 1295.738281 482.8125 C 1298.761719 483.859375 1302.300781 484.40625 1306.320313 484.425781 C 1313.929688 484.425781 1319.640625 482.652344 1323.460938 479.113281 C 1327.289063 475.566406 1329.199219 470.289063 1329.199219 463.273438 L 1329.199219 461.785156 Z M 1312.761719 461.785156 "/>
</g>
<g clip-path="url(#clip2)" clip-rule="nonzero">
<path style=" stroke:none;fill-rule:evenodd;fill:rgb(10.594177%,9.812927%,9.423828%);fill-opacity:1;" d="M 326.371094 146.445313 L 1330.910156 146.445313 L 1330.910156 138.113281 L 326.371094 138.113281 Z M 326.371094 146.445313 "/>
</g>
</g>
</svg>
